<svg xmlns="http://www.w3.org/2000/svg" viewBox="0 0 57.96 57.96"><defs><style>.cls-1{fill:#767676;}</style></defs><title>Artboard 2 copy</title><g id="Layer_2" data-name="Layer 2"><path class="cls-1" d="M55.21,27A26.32,26.32,0,0,0,29,2.78a25.91,25.91,0,0,0-4.78.46,25.19,25.19,0,0,0-3.27.81A26.33,26.33,0,0,0,2.74,27c-.06.71-.09,1.42-.09,2.14,0,.32,0,.63,0,.94A26.31,26.31,0,0,0,20.93,54.17,23.67,23.67,0,0,0,24.2,55a25.91,25.91,0,0,0,4.78.46,26.32,26.32,0,0,0,26.3-25.39c0-.31,0-.63,0-.94C55.31,28.39,55.27,27.68,55.21,27ZM50.87,22.3a23,23,0,0,1,1.07,5.21c-3.15.47-6.43.85-9.81,1.13a73.55,73.55,0,0,0-.58-8.32C44.7,20.92,50.81,22.49,50.87,22.3ZM49.6,18.88a73.37,73.37,0,0,0-8.52-2,72.73,72.73,0,0,0-2-8.42A23.12,23.12,0,0,1,49.6,18.88ZM22.4,7.14l-.17,0a22.72,22.72,0,0,1,3.09-.71A23.27,23.27,0,0,1,29,6.07a23,23,0,0,1,6.62,1c-.13,0-.26,0-.38.09a69.39,69.39,0,0,1,2.38,9.23,72.89,72.89,0,0,0-8.79-.59,72.89,72.89,0,0,0-8.79.59A69.39,69.39,0,0,1,22.4,7.14ZM6.91,22.67a71.9,71.9,0,0,1,9.16-2.35,73,73,0,0,0-.58,8.29C12.23,28.33,9.05,28,6,27.51A24.2,24.2,0,0,1,6.91,22.67ZM6,30.57q4.61.67,9.54,1.07c.09,2.11.28,4.2.53,6.26a70.26,70.26,0,0,1-9.16-2.35A24.74,24.74,0,0,1,6,30.57Zm2.42,8.89a73.71,73.71,0,0,0,8.12,1.91,72.67,72.67,0,0,0,2,8.24A23.11,23.11,0,0,1,8.42,39.46Zm8.12-22.61a69.46,69.46,0,0,0-8.12,1.92A23.08,23.08,0,0,1,18.5,8.61,72.67,72.67,0,0,0,16.54,16.85ZM35.6,51.17a23,23,0,0,1-6.62,1,23.27,23.27,0,0,1-3.66-.32,22.72,22.72,0,0,1-3.09-.71l.17,0A69.93,69.93,0,0,1,20,41.85a72.75,72.75,0,0,0,8.79.59,72.75,72.75,0,0,0,8.79-.59,69.93,69.93,0,0,1-2.38,9.24C35.34,51.12,35.47,51.13,35.6,51.17Zm2.55-12.72a66.88,66.88,0,0,1-9.34.7,66.88,66.88,0,0,1-9.34-.7c-.3-2.16-.52-4.35-.63-6.57,3.3.19,6.68.3,10.14.3s6.61-.1,9.8-.28C38.67,34.11,38.45,36.29,38.15,38.45ZM29,29.18c-3.47,0-6.88-.12-10.21-.33a69.52,69.52,0,0,1,.7-9.08,66.88,66.88,0,0,1,9.34-.7,66.88,66.88,0,0,1,9.34.7,68.25,68.25,0,0,1,.7,9.1C35.63,29.07,32.33,29.18,29,29.18ZM39.07,49.79a72.73,72.73,0,0,0,2-8.42,71.38,71.38,0,0,0,8.52-2A23.12,23.12,0,0,1,39.07,49.79Zm12-14c-.05-.19-6.32,1.52-9.47,2.12.25-2,.44-4.13.53-6.23,3.42-.26,6.72-.64,9.89-1.1A20.19,20.19,0,0,1,51,35.78Z"/></g></svg>