<svg xmlns="http://www.w3.org/2000/svg" viewBox="0 0 57.96 57.96"><defs><style>.cls-1{fill:#787678;}.cls-2,.cls-3{fill:none;stroke:#787678;stroke-miterlimit:10;}.cls-2{stroke-width:3.25px;}.cls-3{stroke-width:3px;}</style></defs><title>Artboard 2 copy</title><g id="Layer_2" data-name="Layer 2"><path class="cls-1" d="M52,25.32H5.88a3.29,3.29,0,0,0-3.29,3.29V58.23H5.88v-28a1.65,1.65,0,0,1,1.64-1.64H50.31A1.65,1.65,0,0,1,52,30.25v28h3.29V28.61A3.29,3.29,0,0,0,52,25.32Zm-23-9.8a7.83,7.83,0,0,1,8.15,8.15h3.37a11.51,11.51,0,0,0-9.88-11.4V10.79a24.58,24.58,0,0,1-3.29.48v1a11.51,11.51,0,0,0-9.87,11.4h3.37A7.83,7.83,0,0,1,28.92,15.52ZM17.4,31.9H10.82a1.65,1.65,0,0,0-1.65,1.64V58.23h3.29v-23h3.29v23H19V33.54A1.64,1.64,0,0,0,17.4,31.9ZM47,31.9H40.44a1.65,1.65,0,0,0-1.65,1.64V58.23h3.3v-23h3.29v23h3.29V33.54A1.65,1.65,0,0,0,47,31.9Zm-13.16,0H24a1.64,1.64,0,0,0-1.64,1.64V58.23h3.29v-23h6.58v23H35.5V33.54A1.64,1.64,0,0,0,33.86,31.9Z"/><rect class="cls-2" x="14.05" y="1.86" width="15" height="7"/><line class="cls-3" x1="28.55" y1="13.36" x2="28.55" y2="8.36"/></g></svg>