<svg id="Layer_1" data-name="Layer 1" xmlns="http://www.w3.org/2000/svg" viewBox="0 0 3511.05 3511.05"><defs><style>.cls-1{fill:#020100;}.cls-2{fill:#fcf101;}</style></defs><title>Artboard 2ss</title><rect class="cls-1" width="3511.05" height="3511.05"/><rect class="cls-2" x="203.53" y="203.53" width="3104" height="3104"/><path class="cls-1" d="M622.27,878.38c111.44,109.67,215.37,212.1,319.49,314.32,104.35,102.44,208.91,204.66,316.6,310.15V492.8H1075.57V1097l-634-622.54V1482.79H622.27Z"/><path class="cls-1" d="M2177.35,995.41c6.16,239.29,162.57,435.2,394.83,494.48,210.27,53.67,465.91-32.5,560.52-191.05l-143.62-103.26c-180.46,204.49-411.75,147.13-522.81,28.27-130.86-140-124.61-356.23,15.73-486.15,130.15-120.51,352.42-141.4,503.42,50.71L3133.74,677.1c-116.94-173.6-371.84-250.54-592.08-181C2320.31,566.07,2171.57,769.9,2177.35,995.41Z"/><path class="cls-1" d="M1668.56,990.65c25.54,38.95,38.31,77.63,37,124.85-3,104.51-.93,209.22-.93,313.85v52.79h182.68c0-130.42.78-257.44-.54-384.42-.33-32.69,7.18-60.09,25.14-87.73C2016,849.68,2118.67,688.41,2221.62,527.34c6.55-10.26,11.31-21.65,18.54-35.67H2031.3l-235,383.91L1560.54,491.1H1349.72c11.69,20,19.22,34,27.77,47.38C1474.22,689.39,1570.27,840.76,1668.56,990.65Z"/><path class="cls-1" d="M1001.18,2779.27c-93.55,70-197.59,74.08-302.47,32-51.88-20.8-98.44-54.4-150.67-84L377.31,2861.94c27,23.58,48.54,46.43,73.9,63.89,185.46,127.69,385.8,146.42,594.28,67.33,128.73-48.84,214.22-143.9,258.8-272.33,72.32-208.31-34.17-425-237.26-484.54-23.6-6.92-48-11.27-77-17.95l334.38-410.86h-887v199.33H914.37L637,2364.08l3.68,7.35c5.72-1.16,11.45-2.27,17.15-3.5,102-22,202.93-22.55,299.61,21.65C1125.87,2466.58,1148.71,2668.88,1001.18,2779.27Z"/><polygon class="cls-1" points="2590.56 3010.67 2815.82 3010.67 2815.82 1781.25 2428.67 2009.31 2428.67 2242.48 2590.56 2136.43 2590.56 3010.67"/><polygon class="cls-1" points="1777.33 3011.17 1998.88 3011.17 1998.88 1782.9 1615.98 2008.94 1615.98 2241.96 1777.33 2136.05 1777.33 3011.17"/></svg>