<svg xmlns="http://www.w3.org/2000/svg" viewBox="0 0 57.96 57.96"><defs><style>.cls-1{fill:#787678;}</style></defs><title>Artboard 2 copy</title><g id="Layer_2" data-name="Layer 2"><path class="cls-1" d="M1.55,44.72l.31-.31q4.66-4.66,9.33-9.33a9.45,9.45,0,0,1,5.43-2.68A10.39,10.39,0,0,1,18,32.31H33a4.07,4.07,0,0,1,3.9,3.39,4,4,0,0,1-3.15,4.56c-1.3.29-2.6.52-3.91.78l-2.45.48s0,0,0,0c.21.2.36.43.73.43,3.1,0,6.19,0,9.29,0a.42.42,0,0,0,.32-.13L48,31.56a4.42,4.42,0,0,1,3.2-1.38,4,4,0,0,1,3.91,3.22A4,4,0,0,1,54,37.23L41.21,50a5.38,5.38,0,0,1-3.94,1.63H17.63a1.38,1.38,0,0,0-1,.43c-1.41,1.43-2.84,2.85-4.26,4.27l0,0h0l-.8-.78L1.91,46l-.36-.35Zm10.76,8.57.1-.09,2.69-2.66a5.7,5.7,0,0,1,.52-.46,3.23,3.23,0,0,1,2-.6h19.6a3.39,3.39,0,0,0,2.53-1.05L52.44,35.75l.22-.23a1.94,1.94,0,0,0-.78-3.07,2.08,2.08,0,0,0-2.26.56c-1,1-2,2-3,3q-2.79,2.81-5.59,5.6c-.78.79-1.58,1.57-2.36,2.35a.34.34,0,0,1-.29.11H27.05a.4.4,0,0,1-.22-.06,1.93,1.93,0,0,1-.3-.27c-1.15-1.15-2.29-2.31-3.43-3.46l-.08-.1.16,0,2.54-.49,6.9-1.41a4.25,4.25,0,0,0,1.26-.37,1.8,1.8,0,0,0,.95-1.9,1.85,1.85,0,0,0-1.92-1.57q-7.44,0-14.87,0a7.25,7.25,0,0,0-5.28,2.16Q8.5,40.84,4.26,45.1l-.07.08Z"/><path class="cls-1" d="M33.57,18.89h3v3.75h3.72v3H36.55v3.75h-3V25.61H29.85v-3h3.72Z"/><path class="cls-1" d="M18,10.79h4v5h5v4H22v5H18v-5H13v-4h5Z"/><path class="cls-1" d="M37,.79h4v5h5v4H41v5H37v-5H32v-4h5Z"/></g></svg>