<svg xmlns="http://www.w3.org/2000/svg" viewBox="0 0 57.96 57.96"><defs><style>.cls-1{fill:#767676;}</style></defs><title>Artboard 2 copy</title><g id="Layer_2" data-name="Layer 2"><path class="cls-1" d="M15.44,44.44a1.16,1.16,0,0,0,1.15-1.15V17.2a1.15,1.15,0,0,0-2.3,0V43.29A1.15,1.15,0,0,0,15.44,44.44Z"/><path class="cls-1" d="M22.33,44.44a1.15,1.15,0,0,0,1.15-1.15V19.92H23a3.73,3.73,0,0,1-1.79-.47V43.29A1.15,1.15,0,0,0,22.33,44.44Z"/><path class="cls-1" d="M7.39,46.74v-33h11.8a3.65,3.65,0,0,1,.85-2.3H2.79V9.15H33.46a6.1,6.1,0,0,1,1.7-2.28l-.18,0H23.48a4.6,4.6,0,1,0-9.19,0H2.79a2.3,2.3,0,0,0-2.3,2.3v2.3a2.3,2.3,0,0,0,2.3,2.3h2.3v33A2.3,2.3,0,0,0,7.39,49H23.78v-2.3ZM18.89,4.55a2.3,2.3,0,0,1,2.3,2.3h-4.6A2.3,2.3,0,0,1,18.89,4.55Z"/><path class="cls-1" d="M55.15,11.37H43.66a4.6,4.6,0,0,0-9.2,0H23a2.3,2.3,0,0,0-2.3,2.3V16a2.3,2.3,0,0,0,2.3,2.3h2.3v33a2.29,2.29,0,0,0,2.29,2.3h23a2.3,2.3,0,0,0,2.3-2.3v-33h2.3a2.3,2.3,0,0,0,2.3-2.3v-2.3A2.3,2.3,0,0,0,55.15,11.37ZM39.06,9.07a2.3,2.3,0,0,1,2.3,2.3h-4.6A2.3,2.3,0,0,1,39.06,9.07ZM50.55,51.26h-23v-33h23ZM55.15,16H23v-2.3H55.15Z"/><path class="cls-1" d="M30.88,39.28h5.94a1.08,1.08,0,1,0,0-2.15H32.75l1.34-2.33,1.21.7V30.56L31,33l1.21.7L30,37.67a1.09,1.09,0,0,0,0,1.08A1.07,1.07,0,0,0,30.88,39.28Z"/><path class="cls-1" d="M35.44,30.3a1.08,1.08,0,0,0,1.47-.39l2-3.53,1.35,2.33-1.21.69,4.28,2.47V26.93l-1.21.7-2.27-3.94a1.1,1.1,0,0,0-.94-.54,1.06,1.06,0,0,0-.93.54l-3,5.14A1.08,1.08,0,0,0,35.44,30.3Z"/><path class="cls-1" d="M43.33,33.59l2,3.53H42.68V35.73L38.41,38.2l4.27,2.47V39.28h4.55a1.12,1.12,0,0,0,.94-.54,1.09,1.09,0,0,0,0-1.08l-3-5.14a1.08,1.08,0,0,0-1.87,1.07Z"/></g></svg>