<svg xmlns="http://www.w3.org/2000/svg" viewBox="0 0 57.96 57.96"><defs><style>.cls-1{fill:#787678;}</style></defs><title>Artboard 2 copy</title><g id="Layer_2" data-name="Layer 2"><path class="cls-1" d="M26.76,16.47,4,19.41a2.3,2.3,0,0,0-2.3,2.3v9.18A2.3,2.3,0,0,0,4,33.19l22.81,2.94L36,42.38h2.29V10.22H36ZM36,38.93l-8-5.1L4,30.89V21.71l24-2.94,8-5.1Z"/><path class="cls-1" d="M8.29,47.74c-.69,0-1.46,0-2.3,0l-1.51-.05L6.66,32.93l2.67.39L7.59,45a28.88,28.88,0,0,0,5-.3,2.87,2.87,0,0,0-.45-.62l-.38-.39V33.86h2.7v8.79c.89,1.12,1.33,2.61.46,3.77C14.64,46.84,14,47.74,8.29,47.74ZM13,44.61Z"/><rect class="cls-1" x="10.47" y="24.65" width="15.73" height="2.69" transform="translate(-7.79 44.14) rotate(-89.59)"/><path class="cls-1" d="M37.63,33.65V31c1.93,0,2.08-3.56,2.08-4.65s-.15-4.65-2.08-4.65V19c3,0,4.78,2.75,4.78,7.35S40.62,33.65,37.63,33.65Z"/><path class="cls-1" d="M46.21,32.86a11.83,11.83,0,0,0-.1-13.8c-.17-.24-1-1.37-1.7-.62a1.4,1.4,0,0,0,0,1.69,9.73,9.73,0,0,1,0,11.79s-.46,1,.06,1.52S46,33.13,46.21,32.86Z"/><path class="cls-1" d="M52.34,26a15.8,15.8,0,0,0-4.73-11.29c-.39-.38-1.28-1.17-1.75-.2s.54,1.79.54,1.79a13.87,13.87,0,0,1,0,19.41s-1.18,1-.43,1.87c.58.64,1.42-.06,1.88-.52A15.8,15.8,0,0,0,52.34,26Z"/><path class="cls-1" d="M49.7,11.28c-.43-.38-1.69-1.64-2.4-.74s1.08,2.21,1.08,2.21a17.78,17.78,0,0,1,0,26.55s-2,1.52-1.08,2.33,1.88-.4,2.26-.73a19.76,19.76,0,0,0,.14-29.62Z"/></g></svg>