<svg xmlns="http://www.w3.org/2000/svg" viewBox="0 0 57.96 57.96"><defs><style>.cls-1{fill:#767676;}.cls-2{fill:none;stroke:#767676;stroke-linejoin:round;stroke-width:2px;}</style></defs><title>Artboard 2 copy</title><g id="Layer_2" data-name="Layer 2"><path class="cls-1" d="M29,6.5A23.66,23.66,0,0,0,40.31,9.35a23,23,0,0,0,6.2-.83,14,14,0,0,0-2.3,9.36,32,32,0,0,0,3.14,9.28c2.21,4.8,3.38,7.69,1.75,11.29l-.08.18c-1.27,3.21-4.29,4.53-6.6,5.07l-.94.22c-3.94.91-8.9,2.06-12.5,5.31-3.61-3.26-8.57-4.4-12.51-5.32l-.94-.21c-2.3-.54-5.32-1.87-6.59-5.08l-.08-.18C7.23,34.85,8.4,32,10.61,27.15a32,32,0,0,0,3.14-9.27,14,14,0,0,0-2.3-9.36,23,23,0,0,0,6.2.83A23.63,23.63,0,0,0,29,6.5m0-4.77A18.73,18.73,0,0,1,17.65,5.35,17.94,17.94,0,0,1,9.54,3.51L6,7.57c2.1,2.93,4.33,5.94,3.82,9.78-1,7.8-8.45,14.2-4.57,22.75,1.54,3.89,5,6.45,9.4,7.49C20,48.86,26.76,50.07,29,56.23c2.22-6.16,9-7.37,14.36-8.63,4.41-1,7.86-3.61,9.4-7.5,3.88-8.55-3.54-15-4.57-22.74-.51-3.84,1.72-6.86,3.82-9.78L48.42,3.51a17.94,17.94,0,0,1-8.11,1.84A18.75,18.75,0,0,1,29,1.73Z"/><polygon class="cls-2" points="28.98 31.18 21.87 34.92 23.23 27 17.48 21.4 25.43 20.24 28.98 13.04 32.53 20.24 40.48 21.4 34.73 27 36.09 34.92 28.98 31.18"/></g></svg>