<svg xmlns="http://www.w3.org/2000/svg" viewBox="0 0 57.96 57.96"><defs><style>.cls-1{fill:#787678;}</style></defs><title>Artboard 2 copy</title><g id="Layer_2" data-name="Layer 2"><path class="cls-1" d="M41.77,32.18A19.18,19.18,0,1,0,22.59,51.36,19.18,19.18,0,0,0,41.77,32.18Zm-19.18,16a16,16,0,1,1,16-16A16,16,0,0,1,22.59,48.16ZM53,45H41a22.44,22.44,0,0,1-6.83,6.4H53a1.6,1.6,0,0,0,1.6-1.6v-3.2A1.6,1.6,0,0,0,53,45Zm0-9.59H44.73a22.29,22.29,0,0,1-1.92,6.4H53a1.6,1.6,0,0,0,1.6-1.6V37A1.6,1.6,0,0,0,53,35.37Zm0-9.59H44a22.16,22.16,0,0,1,.93,6.4h8a1.6,1.6,0,0,0,1.6-1.6v-3.2A1.6,1.6,0,0,0,53,25.78Zm0-9.59H38.24a22.4,22.4,0,0,1,4.57,6.4H53a1.6,1.6,0,0,0,1.6-1.6v-3.2A1.6,1.6,0,0,0,53,16.19ZM53,6.6H27.38a1.6,1.6,0,0,0-1.6,1.6V10a22.2,22.2,0,0,1,8.34,3H53a1.6,1.6,0,0,0,1.6-1.6V8.2A1.6,1.6,0,0,0,53,6.6ZM22.33,29.05c-1.44-.72-1.28-2.27.85-2.39a12.46,12.46,0,0,1,4.61.93l.86-3.71A18.72,18.72,0,0,0,24.34,23V21H21.15v2.23c-3.52.76-4.86,3.32-4.86,5.19,0,4.49,5.39,5.23,7,5.93,1.85.79,1.46,2.21-.11,2.55-1.8.39-4.23-.43-5.9-1.08l-1.05,3.63a13.86,13.86,0,0,0,5,1.49v2h3.19V40.7c2.88-.4,5.21-2.15,5.21-5.21C29.55,31.52,25.27,30.38,22.33,29.05Z"/></g></svg>