<svg xmlns="http://www.w3.org/2000/svg" viewBox="0 0 57.96 57.96"><defs><style>.cls-1{fill:#fcee21;}</style></defs><title>Artboard 2 copy</title><g id="Layer_2" data-name="Layer 2"><rect class="cls-1" x="0.91" y="0.91" width="55.95" height="55.95"/><path d="M55.36,2.41v53H2.41V2.41h53m3-3H-.59v59h59V-.59Z"/><path d="M9.46,13.88,15,19.29l5.45,5.34V7.24H17.27v10.4L6.35,6.92V24.28H9.46Z"/><path d="M36.24,15.89A8.9,8.9,0,0,0,43,24.41c3.62.92,8-.56,9.65-3.29l-2.47-1.78c-3.11,3.52-7.09,2.53-9,.48a5.87,5.87,0,0,1,.27-8.37,5.74,5.74,0,0,1,8.67.88l2.55-1.92c-2-3-6.4-4.31-10.19-3.12A8.86,8.86,0,0,0,36.24,15.89Z"/><path d="M27.48,15.81A3.58,3.58,0,0,1,28.12,18c-.05,1.8,0,3.6,0,5.4v.91h3.15c0-2.24,0-4.43,0-6.62a2.55,2.55,0,0,1,.43-1.51c1.79-2.76,3.56-5.54,5.34-8.31.11-.18.19-.37.31-.61H33.73l-4,6.61L25.62,7.21H22c.2.34.33.58.48.81C24.13,10.62,25.79,13.23,27.48,15.81Z"/><path d="M16,46.61a5.06,5.06,0,0,1-5.21.55,22.46,22.46,0,0,1-2.59-1.45L5.25,48a13.43,13.43,0,0,0,1.27,1.1,10.51,10.51,0,0,0,10.23,1.16,7.35,7.35,0,0,0,4.46-4.69,6.35,6.35,0,0,0-4.09-8.34c-.4-.12-.82-.19-1.32-.31l5.75-7.07H6.28v3.43h8.21L9.72,39.46l.06.13.3-.06a8,8,0,0,1,5.16.37A3.8,3.8,0,0,1,16,46.61Z"/><polygon points="43.36 50.59 47.24 50.59 47.24 29.42 40.57 33.35 40.57 37.37 43.36 35.54 43.36 50.59"/><polygon points="29.35 50.6 33.17 50.6 33.17 29.45 26.58 33.34 26.58 37.36 29.35 35.53 29.35 50.6"/></g></svg>