<svg xmlns="http://www.w3.org/2000/svg" viewBox="0 0 57.96 57.96"><defs><style>.cls-1{fill:#777677;}</style></defs><title>Artboard 2</title><g id="Layer_2" data-name="Layer 2"><path class="cls-1" d="M6.44,37.65v-2.4c0-4.17,2.53-12.08,12.08-12.08a1.63,1.63,0,1,1,0,3.25c-5.78,0-7.78,3.66-8.47,6.29l7.87-3.15a1.63,1.63,0,0,1,1.21,3Z"/><path class="cls-1" d="M18.52,45.24H16.43C1.86,45.24.17,35.15.17,27.55V6A5.65,5.65,0,0,1,6,.17c1.9,0,4,1,6.17,2.05s4.47,2.14,6.37,2.14S23,3.17,25.21,2.13s4.15-2,5.86-2A5.65,5.65,0,0,1,36.88,6v5.45a1.63,1.63,0,0,1-3.25,0V6a2.39,2.39,0,0,0-2.56-2.56c-1,0-2.76.84-4.48,1.65-2.51,1.19-5.37,2.54-8.07,2.54S13.15,6.3,10.75,5.15C9,4.3,7.15,3.42,6,3.42A2.39,2.39,0,0,0,3.42,6V27.55C3.42,35.05,5,42,16.43,42h2.09a1.63,1.63,0,1,1,0,3.25Z"/><path class="cls-1" d="M10.16,20.15A5.81,5.81,0,1,1,16,14.34,5.81,5.81,0,0,1,10.16,20.15Zm0-8.36a2.56,2.56,0,1,0,2.56,2.55A2.56,2.56,0,0,0,10.16,11.79Z"/><path class="cls-1" d="M39.43,57.79c-11.49,0-18.35-6.86-18.35-18.35V18.53a5.65,5.65,0,0,1,5.81-5.81c1.9,0,4,1,6.17,2s4.46,2.14,6.37,2.14,4.48-1.18,6.69-2.22,4.15-2,5.86-2a5.65,5.65,0,0,1,5.81,5.81V39.44C57.79,50.93,50.93,57.79,39.43,57.79ZM26.9,16a2.39,2.39,0,0,0-2.57,2.56V39.44c0,4.54,1.47,15.1,15.1,15.1S54.54,44,54.54,39.44V18.53A2.37,2.37,0,0,0,52,16c-1,0-2.74.84-4.46,1.65-2.52,1.19-5.37,2.53-8.07,2.53s-5.37-1.3-7.77-2.45C29.89,16.85,28.06,16,26.9,16Z"/><path class="cls-1" d="M31.07,32.7a5.81,5.81,0,1,1,5.81-5.81A5.82,5.82,0,0,1,31.07,32.7Zm0-8.37a2.56,2.56,0,1,0,2.56,2.56A2.56,2.56,0,0,0,31.07,24.33Z"/><path class="cls-1" d="M47.8,32.7a5.81,5.81,0,1,1,5.8-5.81A5.82,5.82,0,0,1,47.8,32.7Zm0-8.37a2.56,2.56,0,1,0,2.55,2.56A2.56,2.56,0,0,0,47.8,24.33Z"/><path class="cls-1" d="M39.43,51.52c-9.55,0-12.08-7.91-12.08-12.08V37.81H51.51v1.63C51.51,43.61,49,51.52,39.43,51.52ZM30.76,41.06c.45,2.59,2.17,7.21,8.67,7.21s8.22-4.62,8.67-7.21Z"/></g></svg>