<svg xmlns="http://www.w3.org/2000/svg" viewBox="0 0 57.96 57.96"><defs><style>.cls-1{fill:#777677;}</style></defs><title>Artboard 2 copy</title><g id="Layer_2" data-name="Layer 2"><path class="cls-1" d="M29,19a3.33,3.33,0,0,0,3.34-3.34V12.27a3.34,3.34,0,0,0-6.68,0v3.34A3.33,3.33,0,0,0,29,19Z"/><path class="cls-1" d="M52.16,12.27H35.66v3.34H52.37V45.69H5.59V15.61h16.7V12.27H5.79a3.55,3.55,0,0,0-3.55,3.55V45.48A3.55,3.55,0,0,0,5.79,49H52.16a3.55,3.55,0,0,0,3.55-3.55V15.82A3.55,3.55,0,0,0,52.16,12.27Z"/><circle class="cls-1" cx="17.28" cy="27.31" r="5.01"/><path class="cls-1" d="M9.1,39H25.47A8.35,8.35,0,0,0,9.1,39Z"/><rect class="cls-1" x="32.32" y="22.3" width="13.37" height="3.34"/><rect class="cls-1" x="32.32" y="28.98" width="13.37" height="3.34"/><rect class="cls-1" x="32.32" y="35.66" width="13.37" height="3.34"/></g></svg>