<svg xmlns="http://www.w3.org/2000/svg" viewBox="0 0 57.96 57.96"><defs><style>.cls-1{fill:#787678;}</style></defs><title>Artboard 2 copy</title><g id="Layer_2" data-name="Layer 2"><path class="cls-1" d="M41.21,16.75l-.53,0A9.17,9.17,0,1,0,22.86,13.7c0,.26,0,.53,0,.79a13.76,13.76,0,1,0-4.62,26.72,13.69,13.69,0,0,0,7.64-2.32V34.68A10.52,10.52,0,1,1,24.57,19c3.11,1.4,2.33-2.3,2-2.52a6.11,6.11,0,1,1,10.15,1.1,4.32,4.32,0,0,1-2.12.64s-.89.08-.76,1.42c.05.89,1.22,1,1.22,1a17.88,17.88,0,0,0,3.39-.44,9.17,9.17,0,1,1-3.39,15.59v3.76a12.23,12.23,0,1,0,6.12-22.82ZM39.68,29a1.59,1.59,0,0,0-1.54-1.57A9.16,9.16,0,0,0,32,29.77V24.4a1.53,1.53,0,1,0-3.06,0v3.86a9.16,9.16,0,0,0-6.12-2.34,1.57,1.57,0,0,0-1.52,1.57A1.48,1.48,0,0,0,22.86,29,6.12,6.12,0,0,1,29,35.09v.72a7.32,7.32,0,0,0,0,.81h0V51.91a1.53,1.53,0,0,0,3.06,0V36.06a6.11,6.11,0,0,1,6.1-5.55A1.49,1.49,0,0,0,39.68,29Z"/></g></svg>