<svg xmlns="http://www.w3.org/2000/svg" viewBox="0 0 57.96 57.96"><defs><style>.cls-1{fill:none;}.cls-2{fill:#787678;}</style></defs><title>Artboard 2</title><g id="Layer_2" data-name="Layer 2"><path class="cls-1" d="M10.55,48.18c-.08-.61-.11-1.24-.14-1.86C10.44,46.94,10.47,47.57,10.55,48.18Z"/><path class="cls-1" d="M14.15,54h0Z"/><path class="cls-1" d="M19.9,38h0a2.63,2.63,0,0,1-.43,0A2.58,2.58,0,0,0,19.9,38Z"/><path class="cls-1" d="M6,54.76H6Z"/><path class="cls-1" d="M8.59,3.21h0c.14.9.29,1.81.43,2.71C8.88,5,8.73,4.11,8.59,3.21Z"/><path class="cls-1" d="M43.32,34c-.24.61-.49,1.23-.78,1.82C42.83,35.2,43.08,34.58,43.32,34Z"/><path class="cls-1" d="M29.06,39a4.93,4.93,0,0,1-.92-.33A4.93,4.93,0,0,0,29.06,39Z"/><path class="cls-1" d="M40.34,54h0Z"/><path class="cls-1" d="M6.39,39.31a18.11,18.11,0,0,0,1.23-1.66A18.11,18.11,0,0,1,6.39,39.31Z"/><path class="cls-1" d="M46.08,11.55h-.16a5.11,5.11,0,0,1,.78,0Z"/><path class="cls-1" d="M35,49.22a12.21,12.21,0,0,0,1,2.58c.34.7.48,1.11.67,1.39-.19-.28-.33-.69-.67-1.39A12.21,12.21,0,0,1,35,49.22Z"/><path class="cls-1" d="M8,50.08l.35.17a6.94,6.94,0,0,1,.65.34A10.82,10.82,0,0,1,8.29,47,14,14,0,0,0,8,48.63,4.17,4.17,0,0,0,8,50.08Z"/><path class="cls-1" d="M16.35,40c.38-.44.77-.88,1.17-1.3h0C17.12,39.12,16.73,39.56,16.35,40Z"/><path class="cls-1" d="M9.62,42.82a4.92,4.92,0,0,1,.6,1.67,4.92,4.92,0,0,0-.6-1.67Z"/><path class="cls-2" d="M56.5,15.29a4.56,4.56,0,0,0-3.16-1.86l-.61-.15a.65.65,0,0,0,0-.13,4.47,4.47,0,0,0-1.14-2C50.33,10,46.94,9.44,46.91,9.44a7.69,7.69,0,0,0-.83,0c-4.78,0-7.61,4-9.89,7.22-.38.54-.75,1.06-1.11,1.54a57.44,57.44,0,0,1-10,.89c-.89,0-1.8.05-2.77.1s-2.26.1-3.37.1a17.07,17.07,0,0,1-3.8-.34L15,18.85a6.61,6.61,0,0,1-.32-.65c-.14-.31-.3-.65-.5-1a14.25,14.25,0,0,1-1.46-3.68c-.77-3.33-1.34-6.65-2-10.62A2.13,2.13,0,0,0,9.1,1.12a1.79,1.79,0,0,0-.51-.07,2.15,2.15,0,0,0-1.73.88c-3.47,4.71-2,12.11-.23,17.5a12.66,12.66,0,0,0,.76,1.73,7.9,7.9,0,0,1,.6,1.4,1.1,1.1,0,0,1,0,.2l-.2.42a11.56,11.56,0,0,0-.48,1.06,13.94,13.94,0,0,0-.76,7.48c.36,2.12.3,3.06-.78,4.78a22.34,22.34,0,0,1-1.46,1.94,14.57,14.57,0,0,0-3,4.83A11.41,11.41,0,0,0,1.13,47c0,.47.05.91,0,1.26s0,.62-.07,1a10.24,10.24,0,0,0,0,2.92c.16.8.84,3.49,2.94,4.38a5.06,5.06,0,0,0,1.9.36,4.55,4.55,0,0,0,3.87-1.82,4.19,4.19,0,0,0,.58-1.24A4.7,4.7,0,0,0,12,55.72a4.14,4.14,0,0,0,2.12.46c.76,0,3.3-.11,4.4-1.48a3.25,3.25,0,0,0,.79-3,3.76,3.76,0,0,0-2.73-2.31,4,4,0,0,1-.45-.17c-.53-.24-.62-.33-.72-1-.32-2.37.1-4.09,1.33-5.41l1.1-1.24c.41-.48.81-.93,1.21-1.35l0,0a5.51,5.51,0,0,0,.78.06,6.54,6.54,0,0,0,1-.08,4.1,4.1,0,0,0,2.31-1.26l.07-.07a8.06,8.06,0,0,1,1.71.5,7.24,7.24,0,0,1,.95.57,8.18,8.18,0,0,0,2.62,1.27,10.26,10.26,0,0,0,2.07.26,8.18,8.18,0,0,1,1.12.12c.61.13.67.14.68,2.17,0,.39,0,.79,0,1.2V45c.11,2.9.19,4.81,1.61,7.73.12.25.21.45.29.63a3.71,3.71,0,0,0,3,2.53,16.52,16.52,0,0,0,3,.26,4.35,4.35,0,0,0,2.45-.5,3.26,3.26,0,0,0,1.52-2.3,5.25,5.25,0,0,0-1.4-3.86,7.26,7.26,0,0,0-1.32-1.13A3.39,3.39,0,0,1,41.1,48a3.19,3.19,0,0,0,0-.65c-.15-2.59,0-5.87.5-7.12a5.21,5.21,0,0,1,.79-.83,8.22,8.22,0,0,0,1.45-1.62,18.89,18.89,0,0,0,1.45-3c.11-.28.22-.56.34-.83a30.25,30.25,0,0,0,1.58-5.59c.12-.56.24-1.12.37-1.67.07-.32.13-.68.2-1.05s.14-.86.23-1.18a3.09,3.09,0,0,0,1-1.05,3.52,3.52,0,0,0,.18-.4l.83.07c.48.05.89.09,1.24.09,1.84,0,3.6-.21,4.9-2.74C56.53,19.78,57.51,17.09,56.5,15.29ZM44.29,31.41a15.77,15.77,0,0,1-.6,1.67c-.12.29-.24.59-.37.89-.24.61-.49,1.23-.78,1.82a9.43,9.43,0,0,1-.47.83,22.94,22.94,0,0,1-1.93,2,2.84,2.84,0,0,0-.48.74,5.14,5.14,0,0,0-.26.81A16.92,16.92,0,0,0,39,43.37a39.43,39.43,0,0,0,0,4.1,4.87,4.87,0,0,0-.06.76,3.35,3.35,0,0,0,.15.53,2.45,2.45,0,0,0,.5.76c.1.1.21.19.32.28a9.48,9.48,0,0,1,1.39,1.12,4.29,4.29,0,0,1,.67,1,2.16,2.16,0,0,1,.23.83,1.33,1.33,0,0,1,0,.4,1.13,1.13,0,0,1-.51.67h0a.77.77,0,0,1-.27.09l-.11,0L41,54H39.68a4.58,4.58,0,0,1-.53,0h-.09l-.43,0h-.07l-.39,0H38.1l-.24,0-.44-.12a1.62,1.62,0,0,1-.56-.27,1,1,0,0,1-.22-.23c-.19-.28-.33-.69-.67-1.39a12.21,12.21,0,0,1-1-2.58c-.07-.27-.12-.54-.17-.81a29.7,29.7,0,0,1-.28-3.63,13.88,13.88,0,0,0-.29-3.73,2.46,2.46,0,0,0-.33-.62,2.14,2.14,0,0,0-.52-.52,3.44,3.44,0,0,0-1.25-.51,7,7,0,0,0-.78-.12l-.78-.05a7.57,7.57,0,0,1-1.55-.2,4.93,4.93,0,0,1-.92-.33,8.49,8.49,0,0,1-.74-.43,11.74,11.74,0,0,0-1.52-.93l-.28-.12-.12,0-.23-.08L25.09,37,24.84,37l-.18-.05-.27-.07-.18-.05-.29-.06-.16,0-.34,0h-.08l-.35,0h0a1.06,1.06,0,0,0-.33,0,2,2,0,0,0-.8.49c-.15.14-.3.29-.46.42a1.76,1.76,0,0,1-.85.43,5.43,5.43,0,0,1-.63,0h0a2.58,2.58,0,0,1-.42,0l-.13,0-.24-.05-.21,0h-.25l-.1,0-.16.06-.11.05-.22.17-.11.09c-.12.11-.26.24-.42.41h0c-.4.42-.79.86-1.17,1.3s-.77.88-1.16,1.31a7.47,7.47,0,0,0-.63.76,7.13,7.13,0,0,0-.87,1.66,9.75,9.75,0,0,0-.38,4.75c0,.16,0,.32.09.46a3.21,3.21,0,0,0,.27.81,2.58,2.58,0,0,0,.76.93,3.57,3.57,0,0,0,.38.25,3.61,3.61,0,0,0,.44.23,15.19,15.19,0,0,1,1.66.68l.15.12a.68.68,0,0,1,.23.46,1.42,1.42,0,0,1-.41.93,1,1,0,0,1-.24.19l-.09,0a1.93,1.93,0,0,1-.32.13l-.07,0-.46.12-.13,0-.42.07H15L14.5,54h-.61l-.4,0-.07,0a1.05,1.05,0,0,1-.3-.1,1.22,1.22,0,0,1-.3-.27,9.35,9.35,0,0,1-1.17-2.16c-.26-.61-.48-1.18-.63-1.5a6.12,6.12,0,0,1-.47-1.75c-.08-.61-.11-1.24-.14-1.86a15.31,15.31,0,0,0-.19-1.83,4.92,4.92,0,0,0-.6-1.67L9.29,43A7.49,7.49,0,0,0,7,44.5a10.65,10.65,0,0,0-1.11,3.85c0,.3-.07.6-.08.9a3.05,3.05,0,0,0,.63,2.34,3.58,3.58,0,0,0,1,.6l.2.1a2.55,2.55,0,0,1,.37.19.75.75,0,0,1,.27,1.14,1.64,1.64,0,0,1-.16.28,1.47,1.47,0,0,1-.33.33l-.12.08a2.74,2.74,0,0,1-.34.19l-.13,0a4.44,4.44,0,0,1-.52.15H6.52a3.57,3.57,0,0,1-.47,0H5.88l-.36,0-.16,0a3.09,3.09,0,0,1-.46-.14,2,2,0,0,1-.84-.75,5.86,5.86,0,0,1-.82-2.06,6.38,6.38,0,0,1,0-1.7c0-.59.11-1.18.12-1.71,0-1-.14-2.29-.07-3.42a5.62,5.62,0,0,1,.17-1.05,5.38,5.38,0,0,1,.31-.81,10.93,10.93,0,0,1,1-1.6c.38-.53.8-1.06,1.22-1.57.16-.19.31-.39.46-.58a18.11,18.11,0,0,0,1.23-1.66c.18-.28.33-.55.47-.81a7.49,7.49,0,0,0,.6-1.49,6.89,6.89,0,0,0,.22-2.24c0-.27,0-.55-.07-.84s-.08-.59-.14-.91A11.84,11.84,0,0,1,9.33,25c.47-1.16.92-1.57.83-2.51a4,4,0,0,0-.07-.44,5.52,5.52,0,0,0-.28-.84c-.23-.56-.54-1.11-.8-1.67a7.25,7.25,0,0,1-.34-.83c-.1-.28-.19-.57-.28-.86A30.48,30.48,0,0,1,6.9,9.77,17.46,17.46,0,0,1,7,7.71a9.09,9.09,0,0,1,1.6-4.5h0c.14.9.29,1.81.43,2.71.45,2.7.94,5.37,1.57,8.06a16.51,16.51,0,0,0,1.64,4.19c.86,1.64.87,2.46,2.43,2.83.36.09.75.15,1.13.21l.39,0,.81.09.46,0c.26,0,.53,0,.8,0h1.12l.92,0,.62,0,1,0L23,21.27l.71,0,1.41,0c1.95,0,3.78-.1,5.61-.27,1.66-.16,3.32-.4,5.05-.72.89,2.14,3.51,7,9.28,8.09C44.83,29.35,44.6,30.39,44.29,31.41ZM9,50.59a6.94,6.94,0,0,0-.65-.34L8,50.08a4.17,4.17,0,0,1,0-1.45A14,14,0,0,1,8.29,47,10.82,10.82,0,0,0,9,50.59Zm45.7-32.24a4.68,4.68,0,0,1-.37,1.07c-.76,1.49-1.5,1.58-3,1.58L51,21h-.1l-.41,0-.43,0-.16,0c-.34,0-.68-.06-1-.07H48.6a3.47,3.47,0,0,0-.69.06l-.08,0a.58.58,0,0,0-.25.11.88.88,0,0,0-.24.61,1.91,1.91,0,0,1-.16.72c-.2.37-.72.46-.94.88a3.47,3.47,0,0,0-.26.67,15.57,15.57,0,0,0-.32,1.57,6.77,6.77,0,0,1-.14.73c-.1.44-.19.88-.29,1.33l.19-1c-5.6-1.06-7.81-6.53-8.2-7.64l.06-.08.25-.35.3-.43c.15-.2.3-.41.44-.62l.22-.3.32-.45.24-.32c.1-.14.2-.27.31-.4a2.91,2.91,0,0,1,.26-.33l.3-.39.27-.32.32-.36.28-.3.33-.34.3-.28c.11-.1.22-.21.34-.3l.31-.26.36-.26.33-.23.38-.22.35-.18.4-.17.37-.14c.13,0,.28-.08.42-.12l.39-.08a3.25,3.25,0,0,1,.45-.06l.4,0h.16l.62,0A9.34,9.34,0,0,1,50,12.69a1.81,1.81,0,0,1,.42.61c.28.63.27,1.28,1,1.77s2.24.51,2.91,1a1,1,0,0,1,.22.25A3.22,3.22,0,0,1,54.66,18.35Z"/></g></svg>