<svg xmlns="http://www.w3.org/2000/svg" viewBox="0 0 57.96 57.96"><defs><style>.cls-1{fill:#787678;}</style></defs><title>Artboard 2 copy</title><g id="Layer_2" data-name="Layer 2"><path class="cls-1" d="M35.41,16.12A6.43,6.43,0,1,0,29,22.55,6.43,6.43,0,0,0,35.41,16.12ZM29,19.33a3.22,3.22,0,1,1,3.21-3.21A3.22,3.22,0,0,1,29,19.33Z"/><path class="cls-1" d="M35.41,29A6.43,6.43,0,1,0,29,35.41,6.43,6.43,0,0,0,35.41,29ZM29,32.2A3.22,3.22,0,1,1,32.19,29,3.22,3.22,0,0,1,29,32.2Z"/><path class="cls-1" d="M22.55,41.85A6.43,6.43,0,1,0,29,35.41,6.43,6.43,0,0,0,22.55,41.85ZM29,38.63a3.22,3.22,0,1,1-3.22,3.22A3.22,3.22,0,0,1,29,38.63Z"/><path class="cls-1" d="M38.63,3.25H19.33a3.22,3.22,0,0,0-3.22,3.22v45a3.22,3.22,0,0,0,3.22,3.22h19.3a3.22,3.22,0,0,0,3.21-3.22v-45A3.22,3.22,0,0,0,38.63,3.25Zm0,48.24H19.33v-45h19.3Z"/><polygon class="cls-1" points="12.9 19.33 12.9 9.68 3.25 9.68 12.9 19.33"/><polygon class="cls-1" points="12.9 32.2 12.9 22.55 3.25 22.55 12.9 32.2"/><polygon class="cls-1" points="12.9 45.06 12.9 35.41 3.25 35.41 12.9 45.06"/><polygon class="cls-1" points="45.06 9.68 45.06 19.33 54.71 9.68 45.06 9.68"/><polygon class="cls-1" points="45.06 32.2 54.71 22.55 45.06 22.55 45.06 32.2"/><polygon class="cls-1" points="45.06 45.06 54.71 35.41 45.06 35.41 45.06 45.06"/></g></svg>