<svg xmlns="http://www.w3.org/2000/svg" viewBox="0 0 57.96 57.96"><defs><style>.cls-1{fill:none;}.cls-2{fill:#787678;}</style></defs><title>Artboard 2</title><g id="Layer_2" data-name="Layer 2"><path class="cls-1" d="M42.61,40.17a1.52,1.52,0,0,0,1.51-1.51V8.39a1.51,1.51,0,0,0-1.51-1.51H15.41a1.51,1.51,0,0,0-1.52,1.51V38.66a1.52,1.52,0,0,0,1.52,1.51Zm-23.93-3a2.47,2.47,0,1,1,2.47-2.46A2.46,2.46,0,0,1,18.68,37.14Zm20.76,0a2.47,2.47,0,1,1,2.46-2.46A2.46,2.46,0,0,1,39.44,37.14Zm-4-20a2,2,0,0,1,2-2h3.94a2,2,0,0,1,2,2V24.5a2,2,0,0,1-2,2H37.47a2,2,0,0,1-2-2ZM23.83,17a2,2,0,0,1,2-2h6.46a2,2,0,0,1,2,2V36.19a2,2,0,0,1-2,2H25.83a2,2,0,0,1-2-2ZM14.71,24.5V17.12a2,2,0,0,1,2-2h3.94a2,2,0,0,1,2,2V24.5a2,2,0,0,1-2,2H16.71A2,2,0,0,1,14.71,24.5Z"/><path class="cls-1" d="M25.83,37.19h6.46a1,1,0,0,0,1-1V17a1,1,0,0,0-1-1H25.83a1,1,0,0,0-1,1V36.19A1,1,0,0,0,25.83,37.19Zm0-18.25a2,2,0,0,1,2-2h2.44a2,2,0,0,1,2,2v8.12a2,2,0,0,1-2,2H27.84a2,2,0,0,1-2-2Z"/><path class="cls-1" d="M39.44,23.91a3.1,3.1,0,1,0-3.1-3.1A3.1,3.1,0,0,0,39.44,23.91Z"/><polygon class="cls-1" points="15.4 46.85 14.57 47.69 43.46 47.69 42.62 46.85 15.4 46.85"/><polygon class="cls-1" points="11.57 50.69 10.74 51.52 47.3 51.52 46.46 50.69 11.57 50.69"/><polygon class="cls-1" points="39.62 43.85 38.96 43.2 19.05 43.2 18.99 43.26 19 43.26 18.41 43.85 39.62 43.85"/><path class="cls-2" d="M54.71,54.64,43.24,43.2h.88a3,3,0,0,0,3-3V6.88a3,3,0,0,0-3-3H35.05V2.33A1.51,1.51,0,0,0,33.54.82H24.47A1.52,1.52,0,0,0,23,2.33V3.85H13.9a3,3,0,0,0-3,3V40.17a3,3,0,0,0,3,3h.88l-.62.62,0,0h0v0L3.25,54.7a1,1,0,0,0,0,1.42l.72.72a1,1,0,0,0,1.42,0l2.33-2.33H50.3l2.27,2.26a1,1,0,0,0,1.41,0l.73-.73A1,1,0,0,0,54.71,54.64Zm-11.25-7H14.57l.83-.84H42.62Zm-29.57-9V8.39a1.51,1.51,0,0,1,1.52-1.51h27.2a1.51,1.51,0,0,1,1.51,1.51V38.66a1.52,1.52,0,0,1-1.51,1.51H15.41A1.52,1.52,0,0,1,13.89,38.66Zm5.1,4.6.06-.06H39l.66.65H18.41l.59-.59Zm-8.25,8.26.83-.83H46.46l.84.83Z"/><path class="cls-2" d="M18.68,32.21a2.47,2.47,0,1,0,2.47,2.47A2.47,2.47,0,0,0,18.68,32.21Z"/><path class="cls-2" d="M39.44,32.21a2.47,2.47,0,1,0,2.46,2.47A2.47,2.47,0,0,0,39.44,32.21Z"/><rect class="cls-2" x="25.84" y="16.94" width="6.44" height="12.12" rx="2" ry="2"/><path class="cls-2" d="M37.47,26.5h3.94a2,2,0,0,0,2-2V17.12a2,2,0,0,0-2-2H37.47a2,2,0,0,0-2,2V24.5A2,2,0,0,0,37.47,26.5Zm2-8.79a3.1,3.1,0,1,1-3.1,3.1A3.1,3.1,0,0,1,39.44,17.71Z"/><path class="cls-2" d="M25.83,38.19h6.46a2,2,0,0,0,2-2V17a2,2,0,0,0-2-2H25.83a2,2,0,0,0-2,2V36.19A2,2,0,0,0,25.83,38.19ZM24.83,17a1,1,0,0,1,1-1h6.46a1,1,0,0,1,1,1V36.19a1,1,0,0,1-1,1H25.83a1,1,0,0,1-1-1Z"/><rect class="cls-2" x="14.71" y="15.12" width="7.94" height="11.38" rx="2" ry="2"/></g></svg>