<svg id="Layer_1" data-name="Layer 1" xmlns="http://www.w3.org/2000/svg" width="58" height="58" viewBox="0 0 58 58"><defs><style>.cls-1{fill:#fff000;}.cls-2{fill:none;}</style></defs><title>Artboard 9 copy 31200px</title><rect class="cls-1" x="17" y="6" width="22" height="43"/><path d="M41,3a1,1,0,0,1,1,1V54a1,1,0,0,1-1,1H15a1,1,0,0,1-1-1V4a1,1,0,0,1,1-1H41m0-3H15a4,4,0,0,0-4,4V54a4,4,0,0,0,4,4H41a4,4,0,0,0,4-4V4a4,4,0,0,0-4-4Z"/><path d="M39,7V48H17V7H39m1-1H16V49H40V6Z"/><path d="M33.5,4.75h-8a.25.25,0,0,1,0-.5h8a.25.25,0,0,1,0,.5Z"/><path d="M24.5,4.75a.29.29,0,0,1-.18-.07.35.35,0,0,1-.05-.08.44.44,0,0,1,0-.1.29.29,0,0,1,.07-.18.26.26,0,0,1,.35,0,.25.25,0,0,1,.08.18.27.27,0,0,1-.08.18A.24.24,0,0,1,24.5,4.75Z"/><path d="M28,54.25A2.25,2.25,0,1,1,30.25,52,2.25,2.25,0,0,1,28,54.25Zm0-4A1.75,1.75,0,1,0,29.75,52,1.76,1.76,0,0,0,28,50.25Z"/><path class="cls-2" d="M38.76,15.18V35.79H17.22V15.18H38.78M40,14H16V37H40Z"/><path d="M20.09,19.64l2.25,2.11,2.22,2.07V17.06H23.27v4l-4.45-4.16v6.75h1.27Z"/><path d="M31,20.42a3.5,3.5,0,0,0,2.75,3.32,3.87,3.87,0,0,0,3.93-1.28l-1-.7A2.47,2.47,0,0,1,33,22a2.22,2.22,0,0,1,.08-3.23l0,0a2.41,2.41,0,0,1,3.3.07l.23.27,1-.75a3.87,3.87,0,0,0-4.15-1.21A3.46,3.46,0,0,0,31,20.42Z"/><path d="M27.42,20.39a1.38,1.38,0,0,1,.26.85c0,.7,0,1.4,0,2.1v.36H29V21.12a.92.92,0,0,1,.17-.58l2.18-3.24.12-.23H30l-1.63,2.57-1.67-2.59H25.19l.19.31C26.06,18.37,26.73,19.39,27.42,20.39Z"/><path d="M22.75,32.37a2.15,2.15,0,0,1-2.12.21A8.12,8.12,0,0,1,19.58,32l-1.2.89c.16.15.33.29.51.43a4.46,4.46,0,0,0,4.16.45A2.93,2.93,0,0,0,24.87,32a2.43,2.43,0,0,0-1.49-3.18l-.18-.06c-.16,0-.33-.07-.53-.12L25,25.85H18.79v1.33h3.34l-1.94,2.41,0,.05.12,0a3.43,3.43,0,0,1,2.1.15,1.45,1.45,0,0,1,.31,2.61Z"/><polygon points="33.88 33.91 35.46 33.91 35.46 25.68 32.74 27.21 32.74 28.77 33.88 28.06 33.88 33.91"/><polygon points="28.18 33.92 29.73 33.92 29.73 25.7 27.05 27.21 27.05 28.77 28.18 28.06 28.18 33.92"/></svg>