<svg id="Layer_1" data-name="Layer 1" xmlns="http://www.w3.org/2000/svg" viewBox="0 0 24 24"><defs><style>.cls-1{fill:none;}.cls-2{fill:#787678;}</style></defs><title>Artboard 3</title><path class="cls-1" d="M11,7l1-1,1,1,1-1,1,1,1-1V5.15a3.6,3.6,0,0,0-2.77-3.58A3.5,3.5,0,0,0,9,5V7l1-1Z"/><path class="cls-2" d="M20,6,19,7,18,6,17,7V5.15A4.59,4.59,0,0,0,13.43.59a4.53,4.53,0,0,0-3.78.93A4.48,4.48,0,0,0,8,5V6L7,7,6,6,5,7,4,6A2,2,0,0,0,2,8V22a2,2,0,0,0,2,2H20a2,2,0,0,0,2-2V8A2,2,0,0,0,20,6ZM9,5a3.5,3.5,0,0,1,4.23-3.43A3.6,3.6,0,0,1,16,5.15V6L15,7,14,6,13,7,12,6,11,7,10,6,9,7ZM21,22a1,1,0,0,1-1,1H4a1,1,0,0,1-1-1V8a1,1,0,0,1,.65-.94l.64.65.71.7.71-.7L6,7.41l.29.3.71.7.71-.7L8,7.41l.29.3.71.7.71-.7.29-.3.29.3.71.7.71-.7.29-.3.29.3.71.7.71-.7.29-.3.29.3.71.7.71-.7.29-.3.29.3.71.7.71-.7.29-.3.29.3.71.7.71-.7.64-.65A1,1,0,0,1,21,8Z"/><path class="cls-2" d="M10.37,14.1a1.39,1.39,0,0,1,.52.06.21.21,0,0,1,.11.21.23.23,0,0,1-.11.22,1.39,1.39,0,0,1-.52.06H6.94a.5.5,0,0,1-.29-.07.27.27,0,0,1-.1-.21.2.2,0,0,1,.12-.21,1.39,1.39,0,0,1,.52-.06H8.37V10.58H7.19a1.37,1.37,0,0,1-.51-.06.21.21,0,0,1-.13-.22.24.24,0,0,1,.1-.21A.51.51,0,0,1,7,10h3.67a.45.45,0,0,1,.28.07.24.24,0,0,1,.1.21.22.22,0,0,1-.12.22,1.37,1.37,0,0,1-.51.06H9.19V14.1Z"/><path class="cls-2" d="M7.33,20.39h.56a.71.71,0,0,1,.34.06.22.22,0,0,1,.11.21.26.26,0,0,1-.1.22.94.94,0,0,1-.42.06H6.48a.43.43,0,0,1-.24-.07.29.29,0,0,1-.08-.21.24.24,0,0,1,.09-.22.91.91,0,0,1,.36-.05H6.7V16.87H6.58a1.44,1.44,0,0,1-.51-.06.25.25,0,0,1-.13-.22.21.21,0,0,1,.12-.21.8.8,0,0,1,.37-.07h.69a.71.71,0,0,1,.29,0,.57.57,0,0,1,.19.21L9.86,20V16.87H9.37A.63.63,0,0,1,9,16.8a.22.22,0,0,1-.11-.21A.24.24,0,0,1,9,16.37a.81.81,0,0,1,.39-.06h1.29a.33.33,0,0,1,.24.07.26.26,0,0,1,.08.21.25.25,0,0,1-.1.22.7.7,0,0,1-.35.06H10.5V20.8a.18.18,0,0,1-.06.16.58.58,0,0,1-.28,0,1.16,1.16,0,0,1-.27,0,.61.61,0,0,1-.18-.2L7.33,17.2Z"/><path class="cls-2" d="M16.51,20.39a1.42,1.42,0,0,1,.47.05.23.23,0,0,1,.1.22.24.24,0,0,1-.1.22.91.91,0,0,1-.41.06H14.31a.91.91,0,0,1-.41-.06.26.26,0,0,1-.1-.22.23.23,0,0,1,.11-.22,1.51,1.51,0,0,1,.47-.05h.69v-1.3l-1.59-2.22H13.4a.87.87,0,0,1-.39-.06.25.25,0,0,1-.1-.22.23.23,0,0,1,.09-.21.4.4,0,0,1,.27-.07h1.3a.79.79,0,0,1,.38.06.25.25,0,0,1,.1.22.24.24,0,0,1-.12.22,1,1,0,0,1-.42.06h-.16l1.15,1.69,1.19-1.69H16.5a.78.78,0,0,1-.36-.06.25.25,0,0,1-.1-.22c0-.11,0-.19.09-.22a.9.9,0,0,1,.43-.06h.87a1.12,1.12,0,0,1,.47.06.23.23,0,0,1,.1.22.25.25,0,0,1-.1.22.87.87,0,0,1-.39.06h-.08l-1.61,2.28v1.24Z"/><path class="cls-2" d="M17.54,10.43a1.65,1.65,0,0,0-2.22,0,1.65,1.65,0,0,0-2.22,0,1.41,1.41,0,0,0,0,2.08l2.22,2.08,2.22-2.08A1.41,1.41,0,0,0,17.54,10.43Z"/></svg>