<svg xmlns="http://www.w3.org/2000/svg" viewBox="0 0 57.96 57.96"><defs><style>.cls-1{fill:none;}.cls-2{fill:#767676;}</style></defs><title>Artboard 2 copy</title><g id="Layer_2" data-name="Layer 2"><polygon class="cls-1" points="7.22 31.66 7.22 51.17 14.1 51.17 14.1 39.69 23.29 39.69 23.29 51.17 30.17 51.17 30.17 31.66 18.7 20.18 7.22 31.66"/><rect class="cls-1" x="16.4" y="41.98" width="4.59" height="9.18"/><path class="cls-2" d="M32.82,15.88a2.29,2.29,0,1,0-2.29,2.29A2.3,2.3,0,0,0,32.82,15.88Z"/><path class="cls-2" d="M51.1,15.88a2.29,2.29,0,1,0-2.28,2.29A2.29,2.29,0,0,0,51.1,15.88Z"/><polygon class="cls-2" points="28.25 24.17 31.41 27.33 32.82 27.33 32.82 22.75 28.25 22.75 28.25 24.17"/><rect class="cls-2" x="46.53" y="22.75" width="4.57" height="4.58"/><rect class="cls-2" x="37.39" y="22.75" width="4.57" height="4.58"/><rect class="cls-2" x="46.53" y="29.62" width="4.57" height="4.58"/><path class="cls-2" d="M18.69,16.73.33,35.1H3.77L4.92,34V51.17a2.3,2.3,0,0,0,1.4,2.11,2.35,2.35,0,0,0,.43.13,1.83,1.83,0,0,0,.47.05h23a2.23,2.23,0,0,0,1.28-.39,1.88,1.88,0,0,0,.34-.28,2.25,2.25,0,0,0,.68-1.62V34l1.14,1.15h3.45ZM21,51.17H16.4V42H21Zm9.18,0H23.29V39.69H14.1V51.17H7.22V31.65L18.69,20.18,30.17,31.65Z"/><path class="cls-2" d="M57.89,13.59a1.13,1.13,0,0,0-.33-.87L48.89,4.83a1.17,1.17,0,0,0-.82-.33,1.15,1.15,0,0,0-.81.33l-7.6,7.51L31.41,4.83a1.18,1.18,0,0,0-1.64,0l-8,7.89a1.13,1.13,0,0,0-.33.87h-.07v3.72l2.29,2.29V14.07l6.91-6.81,7.87,7.08a1.48,1.48,0,0,0,2.43,0l7.18-7.08,7.6,6.83V37.63a1.15,1.15,0,0,1-1.14,1.15H42V31.91H37.39v1.4h0v5.46H34v2.29h21.7A2.3,2.3,0,0,0,58,38.78V13.59Z"/></g></svg>