<svg xmlns="http://www.w3.org/2000/svg" viewBox="0 0 57.96 57.96"><defs><style>.cls-1{fill:#787678;}</style></defs><title>Artboard 2 copy</title><g id="Layer_2" data-name="Layer 2"><path class="cls-1" d="M51.17,17.11H19.29a3.18,3.18,0,0,0-3.18,3.18V52.17a3.18,3.18,0,0,0,3.18,3.19H51.17a3.19,3.19,0,0,0,3.19-3.19V20.29A3.18,3.18,0,0,0,51.17,17.11Zm0,35.06H19.29V20.29H51.17Z"/><path class="cls-1" d="M48,13.92a3.19,3.19,0,0,0-3.19-3.19H12.92a3.19,3.19,0,0,0-3.19,3.19V45.79A3.19,3.19,0,0,0,12.92,49V13.92H48Z"/><path class="cls-1" d="M41.61,7.54a3.18,3.18,0,0,0-3.19-3.18H6.54A3.18,3.18,0,0,0,3.36,7.54V39.42a3.18,3.18,0,0,0,3.18,3.19V7.54H41.61Z"/><rect class="cls-1" x="25.67" y="26.67" width="19.13" height="3.19"/><rect class="cls-1" x="25.67" y="33.04" width="19.13" height="3.19"/><rect class="cls-1" x="25.67" y="39.42" width="19.13" height="3.19"/></g></svg>